<mxfile host="Electron" agent="Mozilla/5.0 (Windows NT 10.0; Win64; x64) AppleWebKit/537.36 (KHTML, like Gecko) draw.io/26.2.2 Chrome/134.0.6998.178 Electron/35.1.2 Safari/537.36" version="26.2.2">
  <diagram name="Pagina-1" id="Xi83oLOKdGSP2zJ3HFKp">
    <mxGraphModel dx="680" dy="400" grid="1" gridSize="10" guides="1" tooltips="1" connect="1" arrows="1" fold="1" page="1" pageScale="1" pageWidth="827" pageHeight="1169" math="1" shadow="0">
      <root>
        <mxCell id="0" />
        <mxCell id="1" parent="0" />
        <mxCell id="QxmNBcuNB9oOVSTQ0QVN-9" value="$$\mathbf{r}_{\Omega}$$" style="text;html=1;align=center;verticalAlign=middle;resizable=0;points=[];autosize=1;strokeColor=none;fillColor=none;fontSize=14;" parent="1" vertex="1">
          <mxGeometry x="275" y="314" width="180" height="30" as="geometry" />
        </mxCell>
        <mxCell id="QxmNBcuNB9oOVSTQ0QVN-10" value="$$\Omega$$" style="text;html=1;align=center;verticalAlign=middle;resizable=0;points=[];autosize=1;strokeColor=none;fillColor=none;fontSize=14;" parent="1" vertex="1">
          <mxGeometry x="379" y="298" width="100" height="30" as="geometry" />
        </mxCell>
        <mxCell id="QxmNBcuNB9oOVSTQ0QVN-14" value="$$\mathbf{v}$$" style="text;html=1;align=center;verticalAlign=middle;resizable=0;points=[];autosize=1;strokeColor=none;fillColor=none;fontSize=14;fontColor=#009900;" parent="1" vertex="1">
          <mxGeometry x="315" y="204" width="120" height="30" as="geometry" />
        </mxCell>
        <mxCell id="QxmNBcuNB9oOVSTQ0QVN-13" value="" style="endArrow=classic;html=1;rounded=0;exitX=0.5;exitY=0.6;exitDx=0;exitDy=0;exitPerimeter=0;strokeColor=#009900;" parent="1" source="QxmNBcuNB9oOVSTQ0QVN-4" edge="1">
          <mxGeometry width="50" height="50" relative="1" as="geometry">
            <mxPoint x="360" y="230" as="sourcePoint" />
            <mxPoint x="400" y="230" as="targetPoint" />
          </mxGeometry>
        </mxCell>
        <mxCell id="QxmNBcuNB9oOVSTQ0QVN-12" value="" style="endArrow=classic;html=1;rounded=0;exitX=0;exitY=0;exitDx=0;exitDy=0;entryX=0.653;entryY=0.611;entryDx=0;entryDy=0;entryPerimeter=0;" parent="1" source="QxmNBcuNB9oOVSTQ0QVN-5" target="QxmNBcuNB9oOVSTQ0QVN-4" edge="1">
          <mxGeometry width="50" height="50" relative="1" as="geometry">
            <mxPoint x="350" y="310" as="sourcePoint" />
            <mxPoint x="400" y="260" as="targetPoint" />
          </mxGeometry>
        </mxCell>
        <mxCell id="QxmNBcuNB9oOVSTQ0QVN-1" value="" style="endArrow=classic;html=1;rounded=0;" parent="1" edge="1">
          <mxGeometry width="50" height="50" relative="1" as="geometry">
            <mxPoint x="290" y="340" as="sourcePoint" />
            <mxPoint x="350" y="230" as="targetPoint" />
          </mxGeometry>
        </mxCell>
        <mxCell id="QxmNBcuNB9oOVSTQ0QVN-2" value="" style="endArrow=classic;html=1;rounded=0;" parent="1" edge="1">
          <mxGeometry width="50" height="50" relative="1" as="geometry">
            <mxPoint x="290" y="340" as="sourcePoint" />
            <mxPoint x="420" y="300" as="targetPoint" />
          </mxGeometry>
        </mxCell>
        <mxCell id="QxmNBcuNB9oOVSTQ0QVN-3" value="" style="endArrow=none;html=1;rounded=0;edgeStyle=orthogonalEdgeStyle;curved=1;strokeColor=#007FFF;" parent="1" edge="1">
          <mxGeometry width="50" height="50" relative="1" as="geometry">
            <mxPoint x="310" y="220" as="sourcePoint" />
            <mxPoint x="480" y="260" as="targetPoint" />
            <Array as="points">
              <mxPoint x="310" y="231" />
              <mxPoint x="400" y="231" />
              <mxPoint x="400" y="250" />
              <mxPoint x="480" y="250" />
            </Array>
          </mxGeometry>
        </mxCell>
        <mxCell id="QxmNBcuNB9oOVSTQ0QVN-4" value="" style="ellipse;whiteSpace=wrap;html=1;aspect=fixed;strokeColor=none;fillColor=#3399FF;" parent="1" vertex="1">
          <mxGeometry x="345" y="227" width="6" height="6" as="geometry" />
        </mxCell>
        <mxCell id="QxmNBcuNB9oOVSTQ0QVN-5" value="" style="ellipse;whiteSpace=wrap;html=1;aspect=fixed;strokeColor=none;fillColor=#3399FF;" parent="1" vertex="1">
          <mxGeometry x="417" y="297" width="6" height="6" as="geometry" />
        </mxCell>
        <mxCell id="QxmNBcuNB9oOVSTQ0QVN-6" value="" style="ellipse;whiteSpace=wrap;html=1;aspect=fixed;strokeColor=none;fillColor=#3399FF;" parent="1" vertex="1">
          <mxGeometry x="286" y="337" width="6" height="6" as="geometry" />
        </mxCell>
        <mxCell id="QxmNBcuNB9oOVSTQ0QVN-11" value="$$\mathbf{r}$$" style="text;html=1;align=center;verticalAlign=middle;resizable=0;points=[];autosize=1;strokeColor=none;fillColor=none;fontSize=14;" parent="1" vertex="1">
          <mxGeometry x="250" y="265" width="120" height="30" as="geometry" />
        </mxCell>
        <mxCell id="NfxpVl0YCSHChq9Oy8KP-2" value="$$O$$" style="text;html=1;align=center;verticalAlign=middle;resizable=0;points=[];autosize=1;strokeColor=none;fillColor=none;" parent="1" vertex="1">
          <mxGeometry x="250" y="343" width="60" height="30" as="geometry" />
        </mxCell>
      </root>
    </mxGraphModel>
  </diagram>
</mxfile>
